<svg version="1.1" id="Layer_1" xmlns="http://www.w3.org/2000/svg" xmlns:xlink="http://www.w3.org/1999/xlink" x="0px" y="0px"
	 width="100%" viewBox="0 0 192 192" enable-background="new 0 0 192 192" xml:space="preserve">
<path fill="#FCFDFD" opacity="1.000000" stroke="none" 
	d="
M116.000000,193.000000 
	C77.358192,193.000000 39.216389,193.000000 1.037290,193.000000 
	C1.037290,129.066559 1.037290,65.133102 1.037290,1.099821 
	C64.891624,1.099821 128.783463,1.099821 192.837646,1.099821 
	C192.837646,64.999664 192.837646,128.999802 192.837646,193.000000 
	C167.466721,193.000000 141.983368,193.000000 116.000000,193.000000 
M38.615417,76.175171 
	C31.345369,100.961342 46.767792,130.854111 70.768684,140.888504 
	C94.731773,150.907074 123.896721,146.331970 141.548264,127.797226 
	C157.823547,110.707611 161.848450,85.100365 151.184784,65.144539 
	C139.820770,43.878086 116.080521,31.063259 92.246407,33.330029 
	C66.006470,35.825611 46.523064,51.165447 38.615417,76.175171 
M108.423134,158.816177 
	C110.250008,158.814957 112.076881,158.814148 113.903755,158.812393 
	C116.868103,158.809555 120.069389,158.647766 119.891174,154.679306 
	C119.731552,151.124817 116.696503,151.013489 113.915855,151.016281 
	C101.293869,151.028915 88.671852,151.033798 76.049881,151.014771 
	C73.254013,151.010544 70.223869,151.155533 70.066551,154.675690 
	C69.891106,158.601456 73.069839,158.818542 76.057068,158.816299 
	C86.520035,158.808441 96.983025,158.815063 108.423134,158.816177 
M111.377541,169.340775 
	C112.208923,169.340790 113.040337,169.345642 113.871681,169.339951 
	C116.869499,169.319412 120.685860,169.732300 120.698669,165.564178 
	C120.711563,161.365784 116.884949,161.797775 113.893242,161.795624 
	C101.588783,161.786835 89.284325,161.786957 76.979866,161.789032 
	C74.276428,161.789490 71.135483,161.587936 70.975365,165.317139 
	C70.799095,169.422882 74.082565,169.341934 76.988319,169.343628 
	C88.128838,169.350143 99.269363,169.343094 111.377541,169.340775 
M160.098480,124.345573 
	C164.021469,126.528404 167.794632,129.095276 171.938477,130.712112 
	C173.687653,131.394592 176.217834,130.075455 178.393005,129.666168 
	C177.536880,127.797050 177.185898,125.175949 175.730804,124.198448 
	C171.191650,121.149132 166.263382,118.667809 161.418549,116.093132 
	C160.296021,115.496590 158.773438,114.906158 157.669907,115.198830 
	C156.088165,115.618332 154.466965,116.634224 153.416275,117.867241 
	C153.091431,118.248474 154.338745,120.405220 155.282150,121.320213 
	C156.444534,122.447578 158.041611,123.126755 160.098480,124.345573 
M143.253357,34.817055 
	C146.923752,31.464409 150.833542,28.326401 154.135635,24.643526 
	C155.302490,23.342108 154.985565,20.710310 155.346069,18.685904 
	C153.272522,18.673883 150.537964,17.805094 149.243942,18.803453 
	C144.536957,22.434948 140.156555,26.540745 136.015671,30.818750 
	C134.995361,31.872849 135.346695,34.254616 135.067474,36.026039 
	C136.973404,36.302975 138.875931,36.728802 140.787216,36.772614 
	C141.419479,36.787109 142.074326,35.817211 143.253357,34.817055 
M90.921753,180.923569 
	C95.404976,180.917633 99.945480,181.324600 104.344872,180.714325 
	C106.260712,180.448578 107.886948,178.095047 109.644714,176.689713 
	C107.937355,175.241760 106.363991,172.794296 104.496086,172.543884 
	C99.928169,171.931503 95.176720,171.943924 90.595566,172.499649 
	C88.422089,172.763321 85.109116,174.509201 84.699173,176.172028 
	C83.844391,179.639221 86.860306,180.834854 90.921753,180.923569 
M47.490040,18.888344 
	C43.710930,19.788860 42.943661,22.240442 44.840996,25.220913 
	C48.051895,30.264812 51.413551,35.250435 55.189541,39.870087 
	C56.119450,41.007767 58.890976,40.640144 60.815887,40.964535 
	C61.052135,39.057552 62.129673,36.676109 61.370724,35.330391 
	C58.848766,30.858625 55.777809,26.675417 52.678596,22.561436 
	C51.558117,21.074078 49.763248,20.094763 47.490040,18.888344 
M21.838293,134.436646 
	C27.099043,131.558762 32.502380,128.902588 37.533100,125.667053 
	C39.029823,124.704430 40.613075,121.763603 40.172466,120.345833 
	C39.283318,117.484795 36.476761,117.440559 33.928120,118.838181 
	C28.961317,121.561867 23.910906,124.158401 19.128334,127.177078 
	C17.720493,128.065689 17.096901,130.196793 16.113894,131.758469 
	C17.784742,132.737640 19.455589,133.716827 21.838293,134.436646 
M19.703028,57.801331 
	C24.284945,60.178654 28.751997,62.841915 33.519558,64.757118 
	C34.929359,65.323456 37.186817,63.779713 39.055836,63.202919 
	C38.483757,61.502777 38.421272,58.940834 37.252533,58.249737 
	C31.816284,55.035213 26.174133,52.102837 20.366503,49.631512 
	C19.010035,49.054287 16.720423,50.669956 14.860144,51.276691 
	C15.524003,52.945641 16.056435,54.687157 16.917740,56.247089 
	C17.252594,56.853550 18.329582,57.050243 19.703028,57.801331 
M23.223303,95.572411 
	C24.218840,95.562584 25.489889,95.938103 26.153313,95.463776 
	C27.593168,94.434334 28.722530,92.970619 29.978844,91.684464 
	C28.670776,90.442238 27.451040,88.252632 26.039425,88.121017 
	C19.770199,87.536507 13.437087,87.290756 7.147992,87.513344 
	C5.606816,87.567894 4.144530,89.851395 2.645972,91.110130 
	C4.228271,92.434486 5.687975,94.677956 7.416177,94.908463 
	C12.327358,95.563530 17.348124,95.397011 23.223303,95.572411 
M132.220352,144.375977 
	C135.308502,149.298370 138.389511,154.225250 141.487808,159.141266 
	C143.026886,161.583282 145.412430,163.001221 147.615036,160.867722 
	C148.730972,159.786789 148.969360,156.506744 148.165680,154.976624 
	C145.630081,150.149063 142.582336,145.556305 139.364731,141.140900 
	C138.333939,139.726410 136.157944,139.146423 134.505920,138.184631 
	C133.647324,140.030838 132.788727,141.877029 132.220352,144.375977 
M56.632259,138.938705 
	C53.345776,144.119904 50.086655,149.318756 46.760239,154.474197 
	C45.290119,156.752640 44.183990,159.094772 47.013943,160.970551 
	C49.919662,162.896561 51.983814,161.316818 53.585163,158.752533 
	C56.316769,154.378357 59.112885,150.044312 61.826984,145.659409 
	C64.481766,141.370346 62.631447,138.521011 56.632259,138.938705 
M179.318512,85.174316 
	C175.021179,85.314621 170.724121,85.463943 166.426422,85.592026 
	C163.624435,85.675522 160.774246,85.966011 160.917542,89.668541 
	C161.049774,93.085075 163.759247,93.198715 166.378235,93.147179 
	C171.503952,93.046318 176.630295,92.979012 181.756210,92.888092 
	C184.640869,92.836929 187.973236,92.845360 187.956100,88.952194 
	C187.938950,85.062912 184.667969,85.046715 181.741867,85.115723 
	C181.245865,85.127426 180.749786,85.135750 179.318512,85.174316 
M165.321609,58.869423 
	C169.640610,57.754623 174.062134,56.915131 178.219696,55.366837 
	C179.566940,54.865120 181.218018,52.261818 180.923904,51.062916 
	C180.608429,49.776985 177.956360,47.948936 176.687119,48.199181 
	C170.056885,49.506420 163.499176,51.258411 157.030746,53.231174 
	C155.989288,53.548801 154.670441,56.050915 155.002823,57.021900 
	C155.451721,58.333321 157.275894,59.785870 158.690216,60.002827 
	C160.533035,60.285515 162.552567,59.416405 165.321609,58.869423 
M94.634857,5.053195 
	C93.702026,6.616244 92.069115,8.134123 91.964828,9.750628 
	C91.622688,15.053424 91.531700,20.419397 92.006737,25.701502 
	C92.164940,27.460665 94.101082,30.166216 95.610252,30.460487 
	C98.489555,31.021915 99.934769,28.693571 99.919647,25.721428 
	C99.892555,20.396727 99.913322,15.071801 99.899460,9.747006 
	C99.891792,6.801514 98.627007,4.990132 94.634857,5.053195 
z"/>
<path fill="#356B9C" opacity="1.000000" stroke="none" 
	d="
M38.722679,75.780746 
	C46.523064,51.165447 66.006470,35.825611 92.246407,33.330029 
	C116.080521,31.063259 139.820770,43.878086 151.184784,65.144539 
	C161.848450,85.100365 157.823547,110.707611 141.548264,127.797226 
	C123.896721,146.331970 94.731773,150.907074 70.768684,140.888504 
	C46.767792,130.854111 31.345369,100.961342 38.722679,75.780746 
M52.300308,119.195724 
	C53.903515,121.019768 55.506725,122.843811 57.044319,124.593201 
	C60.640430,122.314301 63.873692,120.555130 66.726364,118.311974 
	C67.835304,117.439957 68.762657,115.400925 68.610413,114.021797 
	C67.919815,107.765938 66.934235,101.532936 65.751694,95.349686 
	C65.529297,94.186813 63.959358,92.444626 62.953640,92.404243 
	C56.350006,92.139091 49.730572,92.267548 43.186676,92.267548 
	C42.351646,100.193741 45.299599,108.902039 52.300308,119.195724 
M132.736603,121.841911 
	C134.088730,122.721237 135.440857,123.600563 137.050079,124.647079 
	C145.702820,115.500282 150.867905,105.255318 151.368805,92.250053 
	C144.952606,92.250053 139.149902,92.444588 133.368179,92.180321 
	C129.636871,92.009766 127.960030,92.952072 128.001328,97.059906 
	C128.039352,100.841728 127.304825,104.666389 126.598953,108.413475 
	C125.019974,116.795540 124.940948,116.780655 132.736603,121.841911 
M52.044876,60.609253 
	C46.557262,68.436218 42.923721,76.885986 42.764408,86.737610 
	C50.649036,86.737610 58.005154,86.737610 64.968346,86.737610 
	C66.314789,79.156120 67.659035,72.020660 68.765518,64.848518 
	C68.916428,63.870308 68.173973,62.293171 67.342072,61.705452 
	C64.005974,59.348595 60.471775,57.272156 56.843922,54.986897 
	C55.279655,56.799648 53.881763,58.419594 52.044876,60.609253 
M128.997833,86.761948 
	C136.376694,86.761948 143.755554,86.761948 151.466248,86.761948 
	C150.498932,74.000031 145.629517,63.687599 137.091476,54.996437 
	C133.473450,57.295895 130.138153,59.180099 127.111237,61.471657 
	C126.099144,62.237865 125.246178,64.119743 125.394714,65.363319 
	C126.220985,72.280937 127.377571,79.159103 128.997833,86.761948 
M89.397079,76.634804 
	C95.403603,82.745522 95.403603,82.745522 94.148819,87.920715 
	C92.641998,86.613770 91.394539,85.279770 89.900337,84.336769 
	C89.092262,83.826790 87.862854,83.984421 86.823532,83.840881 
	C86.977875,84.852158 86.788315,86.157623 87.353073,86.817818 
	C88.858086,88.577179 90.912239,89.884361 92.323914,91.700928 
	C93.683372,93.450317 94.512131,95.612099 95.574051,97.592697 
	C95.170738,97.795197 94.767418,97.997696 94.364098,98.200195 
	C91.961800,96.685783 89.559502,95.171371 87.157196,93.656960 
	C86.627953,94.326569 86.098709,94.996170 85.569466,95.665771 
	C88.440681,98.358055 92.297478,100.568726 93.912918,103.874649 
	C95.614220,107.356270 95.173653,111.884514 95.624985,115.594292 
	C99.187241,111.726570 102.462265,108.170692 105.737328,104.614845 
	C106.075546,104.247635 106.589294,103.932289 106.715691,103.502846 
	C106.972786,102.629295 107.020844,101.694229 107.155052,100.784515 
	C106.115524,100.772995 104.804581,100.353752 104.089577,100.829735 
	C102.262535,102.045975 100.701042,103.661118 98.733589,105.378311 
	C96.011909,96.360634 107.298729,96.075974 107.659485,87.673882 
	C104.022545,90.125145 101.386330,91.901932 98.803986,93.642410 
	C95.403877,86.818954 103.952629,85.406570 104.627388,79.446152 
	C102.167511,80.225891 100.338646,80.805611 98.488960,81.391930 
	C98.224098,77.760681 97.965172,74.210793 97.706245,70.660896 
	C97.091499,70.632515 96.476753,70.604134 95.862015,70.575752 
	C95.388428,72.237419 94.914841,73.899086 94.435646,75.580429 
	C90.402451,73.211670 90.402451,73.211670 89.397079,76.634804 
M100.967186,39.786831 
	C100.573135,43.076210 100.405647,46.412529 99.736000,49.644810 
	C98.494759,55.636055 102.271622,59.672932 106.307365,61.825836 
	C109.015236,63.270382 113.626213,61.147465 118.020615,60.531788 
	C114.265038,51.240139 110.470711,43.663792 100.967186,39.786831 
M100.957695,139.870636 
	C110.313126,136.484604 114.080536,128.562195 117.573936,120.277367 
	C109.242332,115.861671 109.111954,116.285088 103.414528,121.903984 
	C97.932922,127.310051 100.138359,133.496384 100.957695,139.870636 
M83.549286,62.173172 
	C84.635681,62.009624 86.093231,62.240379 86.750862,61.621338 
	C93.104744,55.640350 96.335884,48.610100 93.449432,39.389893 
	C83.935043,43.020996 79.878365,50.857929 76.280067,59.801144 
	C78.743805,60.649963 80.741371,61.338169 83.549286,62.173172 
M79.466728,126.889519 
	C82.844994,132.709503 86.629082,138.060516 93.832344,140.064880 
	C94.938988,129.101746 94.938980,129.101746 88.484390,121.760162 
	C83.680496,116.296104 83.142975,116.228897 76.541862,120.495720 
	C77.376297,122.371109 78.236099,124.303520 79.466728,126.889519 
M122.123901,102.579704 
	C122.414612,99.340324 122.705315,96.100937 123.158829,91.047279 
	C120.171074,92.528503 117.397484,92.990677 116.909286,94.303040 
	C114.754944,100.094139 113.258835,106.130119 111.427200,112.410477 
	C113.948708,113.098572 116.578369,113.816185 119.720406,114.673622 
	C120.582146,110.518486 121.315231,106.983696 122.123901,102.579704 
M112.500298,71.958397 
	C114.216873,76.915596 115.933456,81.872787 117.755302,87.133987 
	C119.228188,87.068352 120.812744,86.997726 123.400162,86.882416 
	C122.245667,79.346977 121.164436,72.289764 120.007736,64.739998 
	C116.278770,65.872635 113.523102,66.709641 110.440941,67.645813 
	C111.171326,69.225296 111.644791,70.249176 112.500298,71.958397 
M79.925987,66.508133 
	C78.218758,66.005424 76.511520,65.502724 73.858894,64.721642 
	C72.754585,72.405418 71.736206,79.491325 70.672211,86.894623 
	C73.341385,86.894623 74.942307,86.894623 76.164352,86.894623 
	C78.279518,80.960762 80.366173,75.389954 82.164024,69.727448 
	C82.405746,68.966110 81.191689,67.742569 79.925987,66.508133 
M72.032219,104.314796 
	C72.803635,107.625931 73.575050,110.937073 74.446297,114.676704 
	C77.143845,113.852760 79.229721,113.215652 80.999626,112.675049 
	C79.540970,106.815788 77.800186,101.630028 77.065292,96.305435 
	C76.466194,91.964806 74.740959,91.512764 70.951057,93.038460 
	C71.289948,96.583885 71.618073,100.016647 72.032219,104.314796 
M67.765587,55.907833 
	C69.150635,55.903957 71.382759,56.440964 71.785675,55.809959 
	C74.795845,51.095768 77.444183,46.150539 80.205902,41.277706 
	C80.011299,40.957047 79.816696,40.636391 79.622086,40.315731 
	C73.535454,43.575279 67.448822,46.834827 60.342091,50.640663 
	C63.468040,52.885136 65.299942,54.200470 67.765587,55.907833 
M114.050224,42.634666 
	C117.159897,47.440792 120.269562,52.246922 123.662567,57.490963 
	C126.596573,55.536354 129.521301,53.587921 133.062653,51.228703 
	C126.992287,46.254887 121.055176,42.933800 114.254265,41.186554 
	C114.146759,41.158936 113.878235,41.758057 114.050224,42.634666 
M127.763687,132.251816 
	C129.308563,131.109940 130.853439,129.968063 133.050278,128.344299 
	C129.424850,125.999657 126.463272,124.084335 123.461151,122.142792 
	C120.039719,127.725945 116.956497,132.757202 113.873283,137.788452 
	C113.954941,138.128693 114.036598,138.468948 114.118256,138.809204 
	C118.461342,136.759003 122.804428,134.708801 127.763687,132.251816 
M73.433586,136.173538 
	C75.459419,136.820129 77.485260,137.466721 80.334480,138.376114 
	C76.797768,132.436874 73.880486,127.537865 70.645912,122.106026 
	C67.542755,124.120682 64.595596,126.034058 60.601925,128.626862 
	C65.243477,131.397293 68.991982,133.634674 73.433586,136.173538 
z"/>
<path fill="#366C9D" opacity="1.000000" stroke="none" 
	d="
M107.934570,158.816177 
	C96.983025,158.815063 86.520035,158.808441 76.057068,158.816299 
	C73.069839,158.818542 69.891106,158.601456 70.066551,154.675690 
	C70.223869,151.155533 73.254013,151.010544 76.049881,151.014771 
	C88.671852,151.033798 101.293869,151.028915 113.915855,151.016281 
	C116.696503,151.013489 119.731552,151.124817 119.891174,154.679306 
	C120.069389,158.647766 116.868103,158.809555 113.903755,158.812393 
	C112.076881,158.814148 110.250008,158.814957 107.934570,158.816177 
z"/>
<path fill="#2C6497" opacity="1.000000" stroke="none" 
	d="
M110.893707,169.340942 
	C99.269363,169.343094 88.128838,169.350143 76.988319,169.343628 
	C74.082565,169.341934 70.799095,169.422882 70.975365,165.317139 
	C71.135483,161.587936 74.276428,161.789490 76.979866,161.789032 
	C89.284325,161.786957 101.588783,161.786835 113.893242,161.795624 
	C116.884949,161.797775 120.711563,161.365784 120.698669,165.564178 
	C120.685860,169.732300 116.869499,169.319412 113.871681,169.339951 
	C113.040337,169.345642 112.208923,169.340790 110.893707,169.340942 
z"/>
<path fill="#386D9D" opacity="1.000000" stroke="none" 
	d="
M159.774658,124.172592 
	C158.041611,123.126755 156.444534,122.447578 155.282150,121.320213 
	C154.338745,120.405220 153.091431,118.248474 153.416275,117.867241 
	C154.466965,116.634224 156.088165,115.618332 157.669907,115.198830 
	C158.773438,114.906158 160.296021,115.496590 161.418549,116.093132 
	C166.263382,118.667809 171.191650,121.149132 175.730804,124.198448 
	C177.185898,125.175949 177.536880,127.797050 178.393005,129.666168 
	C176.217834,130.075455 173.687653,131.394592 171.938477,130.712112 
	C167.794632,129.095276 164.021469,126.528404 159.774658,124.172592 
z"/>
<path fill="#366C9D" opacity="1.000000" stroke="none" 
	d="
M142.986115,35.057228 
	C142.074326,35.817211 141.419479,36.787109 140.787216,36.772614 
	C138.875931,36.728802 136.973404,36.302975 135.067474,36.026039 
	C135.346695,34.254616 134.995361,31.872849 136.015671,30.818750 
	C140.156555,26.540745 144.536957,22.434948 149.243942,18.803453 
	C150.537964,17.805094 153.272522,18.673883 155.346069,18.685904 
	C154.985565,20.710310 155.302490,23.342108 154.135635,24.643526 
	C150.833542,28.326401 146.923752,31.464409 142.986115,35.057228 
z"/>
<path fill="#3A6E9F" opacity="1.000000" stroke="none" 
	d="
M90.479324,180.922577 
	C86.860306,180.834854 83.844391,179.639221 84.699173,176.172028 
	C85.109116,174.509201 88.422089,172.763321 90.595566,172.499649 
	C95.176720,171.943924 99.928169,171.931503 104.496086,172.543884 
	C106.363991,172.794296 107.937355,175.241760 109.644714,176.689697 
	C107.886948,178.095047 106.260712,180.448578 104.344872,180.714325 
	C99.945480,181.324600 95.404976,180.917633 90.479324,180.922577 
z"/>
<path fill="#366C9D" opacity="1.000000" stroke="none" 
	d="
M47.883080,18.885983 
	C49.763248,20.094763 51.558117,21.074078 52.678596,22.561436 
	C55.777809,26.675417 58.848766,30.858625 61.370724,35.330391 
	C62.129673,36.676109 61.052135,39.057552 60.815887,40.964535 
	C58.890976,40.640144 56.119450,41.007767 55.189541,39.870087 
	C51.413551,35.250435 48.051895,30.264812 44.840996,25.220913 
	C42.943661,22.240442 43.710930,19.788860 47.883080,18.885983 
z"/>
<path fill="#386D9D" opacity="1.000000" stroke="none" 
	d="
M21.482365,134.566315 
	C19.455589,133.716827 17.784742,132.737640 16.113894,131.758469 
	C17.096901,130.196793 17.720493,128.065689 19.128334,127.177078 
	C23.910906,124.158401 28.961317,121.561867 33.928120,118.838181 
	C36.476761,117.440559 39.283318,117.484795 40.172466,120.345833 
	C40.613075,121.763603 39.029823,124.704430 37.533100,125.667053 
	C32.502380,128.902588 27.099043,131.558762 21.482365,134.566315 
z"/>
<path fill="#356B9C" opacity="1.000000" stroke="none" 
	d="
M19.385771,57.617462 
	C18.329582,57.050243 17.252594,56.853550 16.917740,56.247089 
	C16.056435,54.687157 15.524003,52.945641 14.860144,51.276691 
	C16.720423,50.669956 19.010035,49.054287 20.366503,49.631512 
	C26.174133,52.102837 31.816284,55.035213 37.252533,58.249737 
	C38.421272,58.940834 38.483757,61.502777 39.055836,63.202919 
	C37.186817,63.779713 34.929359,65.323456 33.519558,64.757118 
	C28.751997,62.841915 24.284945,60.178654 19.385771,57.617462 
z"/>
<path fill="#32699A" opacity="1.000000" stroke="none" 
	d="
M22.774527,95.563171 
	C17.348124,95.397011 12.327358,95.563530 7.416177,94.908463 
	C5.687975,94.677956 4.228271,92.434486 2.645973,91.110130 
	C4.144530,89.851395 5.606816,87.567894 7.147992,87.513344 
	C13.437087,87.290756 19.770199,87.536507 26.039425,88.121017 
	C27.451040,88.252632 28.670776,90.442238 29.978844,91.684464 
	C28.722530,92.970619 27.593168,94.434334 26.153313,95.463776 
	C25.489889,95.938103 24.218840,95.562584 22.774527,95.563171 
z"/>
<path fill="#356B9C" opacity="1.000000" stroke="none" 
	d="
M132.075241,144.049606 
	C132.788727,141.877029 133.647324,140.030838 134.505920,138.184631 
	C136.157944,139.146423 138.333939,139.726410 139.364731,141.140900 
	C142.582336,145.556305 145.630081,150.149063 148.165680,154.976624 
	C148.969360,156.506744 148.730972,159.786789 147.615036,160.867722 
	C145.412430,163.001221 143.026886,161.583282 141.487808,159.141266 
	C138.389511,154.225250 135.308502,149.298370 132.075241,144.049606 
z"/>
<path fill="#356B9C" opacity="1.000000" stroke="none" 
	d="
M56.896454,138.666718 
	C62.631447,138.521011 64.481766,141.370346 61.826984,145.659409 
	C59.112885,150.044312 56.316769,154.378357 53.585163,158.752533 
	C51.983814,161.316818 49.919662,162.896561 47.013943,160.970551 
	C44.183990,159.094772 45.290119,156.752640 46.760239,154.474197 
	C50.086655,149.318756 53.345776,144.119904 56.896454,138.666718 
z"/>
<path fill="#366C9D" opacity="1.000000" stroke="none" 
	d="
M179.786133,85.159973 
	C180.749786,85.135750 181.245865,85.127426 181.741867,85.115723 
	C184.667969,85.046715 187.938950,85.062912 187.956100,88.952194 
	C187.973236,92.845360 184.640869,92.836929 181.756210,92.888092 
	C176.630295,92.979012 171.503952,93.046318 166.378235,93.147179 
	C163.759247,93.198715 161.049774,93.085075 160.917542,89.668541 
	C160.774246,85.966011 163.624435,85.675522 166.426422,85.592026 
	C170.724121,85.463943 175.021179,85.314621 179.786133,85.159973 
z"/>
<path fill="#346A9B" opacity="1.000000" stroke="none" 
	d="
M164.908829,58.956177 
	C162.552567,59.416405 160.533035,60.285515 158.690216,60.002827 
	C157.275894,59.785870 155.451721,58.333321 155.002823,57.021900 
	C154.670441,56.050915 155.989288,53.548801 157.030746,53.231174 
	C163.499176,51.258411 170.056885,49.506420 176.687119,48.199181 
	C177.956360,47.948936 180.608429,49.776985 180.923904,51.062916 
	C181.218018,52.261818 179.566940,54.865120 178.219696,55.366837 
	C174.062134,56.915131 169.640610,57.754623 164.908829,58.956177 
z"/>
<path fill="#33699B" opacity="1.000000" stroke="none" 
	d="
M95.049866,4.998631 
	C98.627007,4.990132 99.891792,6.801514 99.899460,9.747006 
	C99.913322,15.071801 99.892555,20.396727 99.919647,25.721428 
	C99.934769,28.693571 98.489555,31.021915 95.610252,30.460487 
	C94.101082,30.166216 92.164940,27.460665 92.006737,25.701502 
	C91.531700,20.419397 91.622688,15.053424 91.964828,9.750628 
	C92.069115,8.134123 93.702026,6.616244 95.049866,4.998631 
z"/>
<path fill="#F6F9FA" opacity="1.000000" stroke="none" 
	d="
M52.080963,118.903358 
	C45.299599,108.902039 42.351646,100.193741 43.186676,92.267548 
	C49.730572,92.267548 56.350006,92.139091 62.953640,92.404243 
	C63.959358,92.444626 65.529297,94.186813 65.751694,95.349686 
	C66.934235,101.532936 67.919815,107.765938 68.610413,114.021797 
	C68.762657,115.400925 67.835304,117.439957 66.726364,118.311974 
	C63.873692,120.555130 60.640430,122.314301 57.044319,124.593201 
	C55.506725,122.843811 53.903515,121.019768 52.080963,118.903358 
z"/>
<path fill="#F5F8FA" opacity="1.000000" stroke="none" 
	d="
M132.435532,121.625931 
	C124.940948,116.780655 125.019974,116.795540 126.598953,108.413475 
	C127.304825,104.666389 128.039352,100.841728 128.001328,97.059906 
	C127.960030,92.952072 129.636871,92.009766 133.368179,92.180321 
	C139.149902,92.444588 144.952606,92.250053 151.368805,92.250053 
	C150.867905,105.255318 145.702820,115.500282 137.050079,124.647079 
	C135.440857,123.600563 134.088730,122.721237 132.435532,121.625931 
z"/>
<path fill="#F8FAFB" opacity="1.000000" stroke="none" 
	d="
M52.264374,60.324394 
	C53.881763,58.419594 55.279655,56.799648 56.843922,54.986897 
	C60.471775,57.272156 64.005974,59.348595 67.342072,61.705452 
	C68.173973,62.293171 68.916428,63.870308 68.765518,64.848518 
	C67.659035,72.020660 66.314789,79.156120 64.968346,86.737610 
	C58.005154,86.737610 50.649036,86.737610 42.764408,86.737610 
	C42.923721,76.885986 46.557262,68.436218 52.264374,60.324394 
z"/>
<path fill="#F7FAFB" opacity="1.000000" stroke="none" 
	d="
M128.709503,86.406357 
	C127.377571,79.159103 126.220985,72.280937 125.394714,65.363319 
	C125.246178,64.119743 126.099144,62.237865 127.111237,61.471657 
	C130.138153,59.180099 133.473450,57.295895 137.091476,54.996437 
	C145.629517,63.687599 150.498932,74.000031 151.466248,86.761948 
	C143.755554,86.761948 136.376694,86.761948 128.709503,86.406357 
z"/>
<path fill="#E6EDF1" opacity="1.000000" stroke="none" 
	d="
M89.218170,76.280945 
	C90.402451,73.211670 90.402451,73.211670 94.435646,75.580429 
	C94.914841,73.899086 95.388428,72.237419 95.862015,70.575752 
	C96.476753,70.604134 97.091499,70.632515 97.706245,70.660896 
	C97.965172,74.210793 98.224098,77.760681 98.488960,81.391930 
	C100.338646,80.805611 102.167511,80.225891 104.627388,79.446152 
	C103.952629,85.406570 95.403877,86.818954 98.803986,93.642410 
	C101.386330,91.901932 104.022545,90.125145 107.659485,87.673882 
	C107.298729,96.075974 96.011909,96.360634 98.733589,105.378311 
	C100.701042,103.661118 102.262535,102.045975 104.089577,100.829735 
	C104.804581,100.353752 106.115524,100.772995 107.155052,100.784515 
	C107.020844,101.694229 106.972786,102.629295 106.715691,103.502846 
	C106.589294,103.932289 106.075546,104.247635 105.737328,104.614845 
	C102.462265,108.170692 99.187241,111.726570 95.624985,115.594292 
	C95.173653,111.884514 95.614220,107.356270 93.912918,103.874649 
	C92.297478,100.568726 88.440681,98.358055 85.569466,95.665771 
	C86.098709,94.996170 86.627953,94.326569 87.157196,93.656960 
	C89.559502,95.171371 91.961800,96.685783 94.364098,98.200195 
	C94.767418,97.997696 95.170738,97.795197 95.574051,97.592697 
	C94.512131,95.612099 93.683372,93.450317 92.323914,91.700928 
	C90.912239,89.884361 88.858086,88.577179 87.353073,86.817818 
	C86.788315,86.157623 86.977875,84.852158 86.823532,83.840881 
	C87.862854,83.984421 89.092262,83.826790 89.900337,84.336769 
	C91.394539,85.279770 92.641998,86.613770 94.148819,87.920715 
	C95.403603,82.745522 95.403603,82.745522 89.218170,76.280945 
z"/>
<path fill="#F5F8F9" opacity="1.000000" stroke="none" 
	d="
M101.390388,39.846413 
	C110.470711,43.663792 114.265038,51.240139 118.020615,60.531788 
	C113.626213,61.147465 109.015236,63.270382 106.307365,61.825836 
	C102.271622,59.672932 98.494759,55.636055 99.736000,49.644810 
	C100.405647,46.412529 100.573135,43.076210 101.390388,39.846413 
z"/>
<path fill="#F4F7F8" opacity="1.000000" stroke="none" 
	d="
M100.568848,139.720459 
	C100.138359,133.496384 97.932922,127.310051 103.414528,121.903984 
	C109.111954,116.285088 109.242332,115.861671 117.573936,120.277367 
	C114.080536,128.562195 110.313126,136.484604 100.568848,139.720459 
z"/>
<path fill="#F3F6F8" opacity="1.000000" stroke="none" 
	d="
M83.144112,62.099777 
	C80.741371,61.338169 78.743805,60.649963 76.280067,59.801144 
	C79.878365,50.857929 83.935043,43.020996 93.449432,39.389893 
	C96.335884,48.610100 93.104744,55.640350 86.750862,61.621338 
	C86.093231,62.240379 84.635681,62.009624 83.144112,62.099777 
z"/>
<path fill="#F4F7F8" opacity="1.000000" stroke="none" 
	d="
M79.281311,126.562729 
	C78.236099,124.303520 77.376297,122.371109 76.541862,120.495720 
	C83.142975,116.228897 83.680496,116.296104 88.484390,121.760162 
	C94.938980,129.101746 94.938988,129.101746 93.832344,140.064880 
	C86.629082,138.060516 82.844994,132.709503 79.281311,126.562729 
z"/>
<path fill="#EBF1F4" opacity="1.000000" stroke="none" 
	d="
M122.086105,103.014313 
	C121.315231,106.983696 120.582146,110.518486 119.720406,114.673622 
	C116.578369,113.816185 113.948708,113.098572 111.427200,112.410477 
	C113.258835,106.130119 114.754944,100.094139 116.909286,94.303040 
	C117.397484,92.990677 120.171074,92.528503 123.158829,91.047279 
	C122.705315,96.100937 122.414612,99.340324 122.086105,103.014313 
z"/>
<path fill="#ECF1F4" opacity="1.000000" stroke="none" 
	d="
M112.309280,71.615723 
	C111.644791,70.249176 111.171326,69.225296 110.440941,67.645813 
	C113.523102,66.709641 116.278770,65.872635 120.007736,64.739998 
	C121.164436,72.289764 122.245667,79.346977 123.400162,86.882416 
	C120.812744,86.997726 119.228188,87.068352 117.755302,87.133987 
	C115.933456,81.872787 114.216873,76.915596 112.309280,71.615723 
z"/>
<path fill="#ECF1F4" opacity="1.000000" stroke="none" 
	d="
M80.288872,66.620590 
	C81.191689,67.742569 82.405746,68.966110 82.164024,69.727448 
	C80.366173,75.389954 78.279518,80.960762 76.164352,86.894623 
	C74.942307,86.894623 73.341385,86.894623 70.672211,86.894623 
	C71.736206,79.491325 72.754585,72.405418 73.858894,64.721642 
	C76.511520,65.502724 78.218758,66.005424 80.288872,66.620590 
z"/>
<path fill="#E8EEF2" opacity="1.000000" stroke="none" 
	d="
M71.989204,103.882103 
	C71.618073,100.016647 71.289948,96.583885 70.951057,93.038460 
	C74.740959,91.512764 76.466194,91.964806 77.065292,96.305435 
	C77.800186,101.630028 79.540970,106.815788 80.999626,112.675049 
	C79.229721,113.215652 77.143845,113.852760 74.446297,114.676704 
	C73.575050,110.937073 72.803635,107.625931 71.989204,103.882103 
z"/>
<path fill="#EBF1F4" opacity="1.000000" stroke="none" 
	d="
M67.448715,55.711819 
	C65.299942,54.200470 63.468040,52.885136 60.342091,50.640663 
	C67.448822,46.834827 73.535454,43.575279 79.622086,40.315731 
	C79.816696,40.636391 80.011299,40.957047 80.205902,41.277706 
	C77.444183,46.150539 74.795845,51.095768 71.785675,55.809959 
	C71.382759,56.440964 69.150635,55.903957 67.448715,55.711819 
z"/>
<path fill="#EBF1F4" opacity="1.000000" stroke="none" 
	d="
M113.867538,42.349686 
	C113.878235,41.758057 114.146759,41.158936 114.254265,41.186554 
	C121.055176,42.933800 126.992287,46.254887 133.062653,51.228703 
	C129.521301,53.587921 126.596573,55.536354 123.662567,57.490963 
	C120.269562,52.246922 117.159897,47.440792 113.867538,42.349686 
z"/>
<path fill="#EBF1F4" opacity="1.000000" stroke="none" 
	d="
M127.455597,132.455200 
	C122.804428,134.708801 118.461342,136.759003 114.118256,138.809204 
	C114.036598,138.468948 113.954941,138.128693 113.873283,137.788452 
	C116.956497,132.757202 120.039719,127.725945 123.461151,122.142792 
	C126.463272,124.084335 129.424850,125.999657 133.050278,128.344299 
	C130.853439,129.968063 129.308563,131.109940 127.455597,132.455200 
z"/>
<path fill="#ECF1F4" opacity="1.000000" stroke="none" 
	d="
M73.087036,136.022797 
	C68.991982,133.634674 65.243477,131.397293 60.601925,128.626862 
	C64.595596,126.034058 67.542755,124.120682 70.645912,122.106026 
	C73.880486,127.537865 76.797768,132.436874 80.334480,138.376114 
	C77.485260,137.466721 75.459419,136.820129 73.087036,136.022797 
z"/>
</svg>